<svg xmlns="http://www.w3.org/2000/svg" width="382" height="644" viewBox="0 0 382 644" fill="none">
  <path d="M7.95782 3.56421C9.85787 1.30457 12.6593 0 15.6116 0H365.982C368.934 0 371.736 1.30457 373.636 3.56421L379.247 10.2378C380.763 12.04 381.593 14.3191 381.593 16.6736V626.75C381.593 629.105 380.763 631.384 379.247 633.186L373.636 639.86C371.736 642.119 368.934 643.424 365.982 643.424H15.6116C12.6593 643.424 9.85787 642.119 7.95782 639.86L2.34619 633.186C0.830843 631.384 0 629.105 0 626.75L0 16.6737C0 14.3191 0.830847 12.04 2.34621 10.2378L7.95782 3.56421Z" fill="#F7C56B"/>
</svg>
