<svg preserveAspectRatio="none" overflow="visible" style="display: block;" width="213.386" height="40.4384" viewBox="0 0 213.386 40.4384" fill="none" xmlns="http://www.w3.org/2000/svg" xmlns:c2pa="http://c2pa.org/manifest"><metadata><c2pa:manifest>AAAWgmp1bWIAAAAeanVtZGMycGEAEQAQgAAAqgA4m3EDYzJwYQAAABZcanVtYgAAAEdqdW1kYzJtYQARABCAAACqADibcQN1cm46YzJwYToxNGY2NjNkMS1jZjU5LTQzMjYtYTM4NC1iYjllZWRlYmNmYTIAAAADl2p1bWIAAAApanVtZGMyYXMAEQAQgAAAqgA4m3EDYzJwYS5hc3NlcnRpb25zAAAAALxqdW1iAAAARGp1bWRjYm9yABEAEIAAAKoAOJtxE2MycGEuaW5ncmVkaWVudC52MwAAAAAYYzJzaLp/8fFVEmDH+amDaPpcfdQAAABwY2JvcqNpZGM6Zm9ybWF0bWltYWdlL3N2Zyt4bWxqaW5zdGFuY2VJRHgseG1wOmlpZDo4NTFlZGIxZS0xODkxLTRkMjMtYmQ0Ni1hNmJkYzA2MGQ1MGVscmVsYXRpb25zaGlwaHBhcmVudE9mAAAB4mp1bWIAAABBanVtZGNib3IAEQAQgAAAqgA4m3ETYzJwYS5hY3Rpb25zLnYyAAAAABhjMnNocLieuYv6p4Bu3SmxiQYvywAAAZljYm9yomdhY3Rpb25zgqJmYWN0aW9ua2MycGEub3BlbmVkanBhcmFtZXRlcnOha2luZ3JlZGllbnRzgaJjdXJseC1zZWxmI2p1bWJmPWMycGEuYXNzZXJ0aW9ucy9jMnBhLmluZ3JlZGllbnQudjNkaGFzaFggRl6/9bt3rDxEXqOk+OlzRgwFE1Pv0qOd6tnmogq/kk6kZmFjdGlvbngdY29tLmFudGhyb3BpYy5jbGF1ZGUucHJvdmlkZWRqcGFyYW1ldGVyc6F4H2NvbS5hbnRocm9waWMub3JpZ2luLWNvbmZpZGVuY2VndW5rbm93bmtkZXNjcmlwdGlvbnhmQ2xhdWRlIHByb3ZpZGVkIHRoaXMgZmlsZSBhdCB0aGUgcmVxdWVzdCBvZiBhIHVzZXIgYW5kIG1heSBoYXZlIGNyZWF0ZWQgb3IgbW9kaWZpZWQgdGhlIGZpbGUgY29udGVudHMubXNvZnR3YXJlQWdlbnShZG5hbWVmQ2xhdWRlcmFsbEFjdGlvbnNJbmNsdWRlZPUAAADIanVtYgAAAEBqdW1kY2JvcgARABCAAACqADibcRNjMnBhLmhhc2guZGF0YQAAAAAYYzJzaPG5JHIsDqK1w5hUSQsBdGIAAACAY2JvcqVjYWxnZnNoYTI1NmNwYWRNAAAAAAAAAAAAAAAAAGRoYXNoWCAYYZihCcwjQ3wpCR3QfqsOQUKBLZLy3iWiD/2FjqbysGRuYW1lbmp1bWJmIG1hbmlmZXN0amV4Y2x1c2lvbnOBomVzdGFydBj4Zmxlbmd0aBkeBAAAAj5qdW1iAAAAJ2p1bWRjMmNsABEAEIAAAKoAOJtxA2MycGEuY2xhaW0udjIAAAACD2Nib3KlY2FsZ2ZzaGEyNTZpc2lnbmF0dXJleE1zZWxmI2p1bWJmPS9jMnBhL3VybjpjMnBhOjE0ZjY2M2QxLWNmNTktNDMyNi1hMzg0LWJiOWVlZGViY2ZhMi9jMnBhLnNpZ25hdHVyZWppbnN0YW5jZUlEeCx4bXA6aWlkOjVhZjEwZTRlLTNlZTAtNDI5Ny04YmI0LTQwYTI5NjM5NzhkNXJjcmVhdGVkX2Fzc2VydGlvbnODomN1cmx4LXNlbGYjanVtYmY9YzJwYS5hc3NlcnRpb25zL2MycGEuaW5ncmVkaWVudC52M2RoYXNoWCBGXr/1u3esPEReo6T46XNGDAUTU+/So53q2eaiCr+STqJjdXJseCpzZWxmI2p1bWJmPWMycGEuYXNzZXJ0aW9ucy9jMnBhLmFjdGlvbnMudjJkaGFzaFggmQIxSKOYgSfZ1qkhclQ8Xd0jULY6F2W9fdnzGTDOfoGiY3VybHgpc2VsZiNqdW1iZj1jMnBhLmFzc2VydGlvbnMvYzJwYS5oYXNoLmRhdGFkaGFzaFggjzLZThGXqVbGl6VoYd0YdVQGGjXDvzjN+hZyDJ/Ahyx0Y2xhaW1fZ2VuZXJhdG9yX2luZm+jZG5hbWVvQW50aHJvcGljIEZpbGVzZ3ZlcnNpb25lMS4wLjBrc3BlY1ZlcnNpb25lMi40LjAAABA4anVtYgAAAChqdW1kYzJjcwARABCAAACqADibcQNjMnBhLnNpZ25hdHVyZQAAABAIY2JvctKEWQISogEmGCFZAgowggIGMIIBjaADAgECAhRA5aAK7sI50L64g/oGQgU9Z1UTADAKBggqhkjOPQQDAzBJMRcwFQYDVQQKEw5BbnRocm9waWMsIFBCQzEuMCwGA1UEAxMlQW50aHJvcGljIENvbnRlbnQgQ3JlZGVudGlhbHMgUm9vdCBDQTAeFw0yNjA4MDcxODQzNTZaFw0yODA4MDYxOTQzNTZaMEQxFzAVBgNVBAoTDkFudGhyb3BpYywgUEJDMSkwJwYDVQQDEyBBbnRocm9waWMgQ2xhdWRlIENvbnRlbnQgU2lnbmluZzBZMBMGByqGSM49AgEGCCqGSM49AwEHA0IABJh6CmvLUBgFFNU0vUKlOVtE6djd17L5SuwX0LemFisBM3dkd/3cyjxFA3Qo5S46fX0/ihY0VZ7mfb9KF703t5OjWDBWMA4GA1UdDwEB/wQEAwIHgDAVBgNVHSUEDjAMBgorBgEEAYPoXgIBMAwGA1UdEwEB/wQCMAAwHwYDVR0jBBgwFoAUzlHiBIFOZFsj+OPEz5o+nMHXXMIwCgYIKoZIzj0EAwMDZwAwZAIwMXMdFJ4BetLLVY7ORuE9noqbbAZOZn/aArXyTwFAZfKrPzxF2vPoJNf1+UCdg1XGAjBwX1zd9WGqYkqmL5SFqw1QySjr1zJfpJM9+1rdDwSPLMOPOjKuiXjoU/pUUeG9RwmhY3BhZFkNngAAAAAAAAAAAAAAAAAAAAAAAAAAAAAAAAAAAAAAAAAAAAAAAAAAAAAAAAAAAAAAAAAAAAAAAAAAAAAAAAAAAAAAAAAAAAAAAAAAAAAAAAAAAAAAAAAAAAAAAAAAAAAAAAAAAAAAAAAAAAAAAAAAAAAAAAAAAAAAAAAAAAAAAAAAAAAAAAAAAAAAAAAAAAAAAAAAAAAAAAAAAAAAAAAAAAAAAAAAAAAAAAAAAAAAAAAAAAAAAAAAAAAAAAAAAAAAAAAAAAAAAAAAAAAAAAAAAAAAAAAAAAAAAAAAAAAAAAAAAAAAAAAAAAAAAAAAAAAAAAAAAAAAAAAAAAAAAAAAAAAAAAAAAAAAAAAAAAAAAAAAAAAAAAAAAAAAAAAAAAAAAAAAAAAAAAAAAAAAAAAAAAAAAAAAAAAAAAAAAAAAAAAAAAAAAAAAAAAAAAAAAAAAAAAAAAAAAAAAAAAAAAAAAAAAAAAAAAAAAAAAAAAAAAAAAAAAAAAAAAAAAAAAAAAAAAAAAAAAAAAAAAAAAAAAAAAAAAAAAAAAAAAAAAAAAAAAAAAAAAAAAAAAAAAAAAAAAAAAAAAAAAAAAAAAAAAAAAAAAAAAAAAAAAAAAAAAAAAAAAAAAAAAAAAAAAAAAAAAAAAAAAAAAAAAAAAAAAAAAAAAAAAAAAAAAAAAAAAAAAAAAAAAAAAAAAAAAAAAAAAAAAAAAAAAAAAAAAAAAAAAAAAAAAAAAAAAAAAAAAAAAAAAAAAAAAAAAAAAAAAAAAAAAAAAAAAAAAAAAAAAAAAAAAAAAAAAAAAAAAAAAAAAAAAAAAAAAAAAAAAAAAAAAAAAAAAAAAAAAAAAAAAAAAAAAAAAAAAAAAAAAAAAAAAAAAAAAAAAAAAAAAAAAAAAAAAAAAAAAAAAAAAAAAAAAAAAAAAAAAAAAAAAAAAAAAAAAAAAAAAAAAAAAAAAAAAAAAAAAAAAAAAAAAAAAAAAAAAAAAAAAAAAAAAAAAAAAAAAAAAAAAAAAAAAAAAAAAAAAAAAAAAAAAAAAAAAAAAAAAAAAAAAAAAAAAAAAAAAAAAAAAAAAAAAAAAAAAAAAAAAAAAAAAAAAAAAAAAAAAAAAAAAAAAAAAAAAAAAAAAAAAAAAAAAAAAAAAAAAAAAAAAAAAAAAAAAAAAAAAAAAAAAAAAAAAAAAAAAAAAAAAAAAAAAAAAAAAAAAAAAAAAAAAAAAAAAAAAAAAAAAAAAAAAAAAAAAAAAAAAAAAAAAAAAAAAAAAAAAAAAAAAAAAAAAAAAAAAAAAAAAAAAAAAAAAAAAAAAAAAAAAAAAAAAAAAAAAAAAAAAAAAAAAAAAAAAAAAAAAAAAAAAAAAAAAAAAAAAAAAAAAAAAAAAAAAAAAAAAAAAAAAAAAAAAAAAAAAAAAAAAAAAAAAAAAAAAAAAAAAAAAAAAAAAAAAAAAAAAAAAAAAAAAAAAAAAAAAAAAAAAAAAAAAAAAAAAAAAAAAAAAAAAAAAAAAAAAAAAAAAAAAAAAAAAAAAAAAAAAAAAAAAAAAAAAAAAAAAAAAAAAAAAAAAAAAAAAAAAAAAAAAAAAAAAAAAAAAAAAAAAAAAAAAAAAAAAAAAAAAAAAAAAAAAAAAAAAAAAAAAAAAAAAAAAAAAAAAAAAAAAAAAAAAAAAAAAAAAAAAAAAAAAAAAAAAAAAAAAAAAAAAAAAAAAAAAAAAAAAAAAAAAAAAAAAAAAAAAAAAAAAAAAAAAAAAAAAAAAAAAAAAAAAAAAAAAAAAAAAAAAAAAAAAAAAAAAAAAAAAAAAAAAAAAAAAAAAAAAAAAAAAAAAAAAAAAAAAAAAAAAAAAAAAAAAAAAAAAAAAAAAAAAAAAAAAAAAAAAAAAAAAAAAAAAAAAAAAAAAAAAAAAAAAAAAAAAAAAAAAAAAAAAAAAAAAAAAAAAAAAAAAAAAAAAAAAAAAAAAAAAAAAAAAAAAAAAAAAAAAAAAAAAAAAAAAAAAAAAAAAAAAAAAAAAAAAAAAAAAAAAAAAAAAAAAAAAAAAAAAAAAAAAAAAAAAAAAAAAAAAAAAAAAAAAAAAAAAAAAAAAAAAAAAAAAAAAAAAAAAAAAAAAAAAAAAAAAAAAAAAAAAAAAAAAAAAAAAAAAAAAAAAAAAAAAAAAAAAAAAAAAAAAAAAAAAAAAAAAAAAAAAAAAAAAAAAAAAAAAAAAAAAAAAAAAAAAAAAAAAAAAAAAAAAAAAAAAAAAAAAAAAAAAAAAAAAAAAAAAAAAAAAAAAAAAAAAAAAAAAAAAAAAAAAAAAAAAAAAAAAAAAAAAAAAAAAAAAAAAAAAAAAAAAAAAAAAAAAAAAAAAAAAAAAAAAAAAAAAAAAAAAAAAAAAAAAAAAAAAAAAAAAAAAAAAAAAAAAAAAAAAAAAAAAAAAAAAAAAAAAAAAAAAAAAAAAAAAAAAAAAAAAAAAAAAAAAAAAAAAAAAAAAAAAAAAAAAAAAAAAAAAAAAAAAAAAAAAAAAAAAAAAAAAAAAAAAAAAAAAAAAAAAAAAAAAAAAAAAAAAAAAAAAAAAAAAAAAAAAAAAAAAAAAAAAAAAAAAAAAAAAAAAAAAAAAAAAAAAAAAAAAAAAAAAAAAAAAAAAAAAAAAAAAAAAAAAAAAAAAAAAAAAAAAAAAAAAAAAAAAAAAAAAAAAAAAAAAAAAAAAAAAAAAAAAAAAAAAAAAAAAAAAAAAAAAAAAAAAAAAAAAAAAAAAAAAAAAAAAAAAAAAAAAAAAAAAAAAAAAAAAAAAAAAAAAAAAAAAAAAAAAAAAAAAAAAAAAAAAAAAAAAAAAAAAAAAAAAAAAAAAAAAAAAAAAAAAAAAAAAAAAAAAAAAAAAAAAAAAAAAAAAAAAAAAAAAAAAAAAAAAAAAAAAAAAAAAAAAAAAAAAAAAAAAAAAAAAAAAAAAAAAAAAAAAAAAAAAAAAAAAAAAAAAAAAAAAAAAAAAAAAAAAAAAAAAAAAAAAAAAAAAAAAAAAAAAAAAAAAAAAAAAAAAAAAAAAAAAAAAAAAAAAAAAAAAAAAAAAAAAAAAAAAAAAAAAAAAAAAAAAAAAAAAAAAAAAAAAAAAAAAAAAAAAAAAAAAAAAAAAAAAAAAAAAAAAAAAAAAAAAAAAAAAAAAAAAAAAAAAAAAAAAAAAAAAAAAAAAAAAAAAAAAAAAAAAAAAAAAAAAAAAAAAAAAAAAAAAAAAAAAAAAAAAAAAAAAAAAAAAAAAAAAAAAAAAAAAAAAAAAAAAAAAAAAAAAAAAAAAAAAAAAAAAAAAAAAAAAAAAAAAAAAAAAAAAAAAAAAAAAAAAAAAAAAAAAAAAAAAAAAAAAAAAAAAAAAAAAAAAAAAAAAAAAAAAAAAAAAAAAAAAAAAAAAAAAAAAAAAAAAAAAAAAAAAAAAAAAAAAAAAAAAAAAAAAAAAAAAAAAAAAAAAAAAAAAAAAAAAAAAAAAAAAAAAAAAAAAAAAAAAAAAAAAAAAAAAAAAAAAAAAAAAAAAAAAAAAAAAAAAAAAAAAAAAAAAAAAAAAAAAAAAAAAAAAAAAAAAAAAAAAAAAAAAAAAAAAAAAAAAAAAAAAAAAAAAAAAAAAAAAAAAAAAAAAAAAAAAAAAAAAAAAAAAAAAAAAAAAAAAAAAAAAAAAAAAAAAAAAAAAAAAAAAAAAAAAAAAAAAAAAAAAAAAAAAAAAAAAAAAAAAAAAAAAAAAAAAAAAAAAAAAAAAAAAAAAAAAAAAAAAAAAAAAAAAAAAAAAAAAAAAAAAAAAAAAAAAAAAAAAAAAAAAAAAAAAAAAAAAAAAAAAAAAAAAAAAAAAAAAAAAAAAAAAAAAAAAAAAAAAAAAAAAAAAAAAAAAAAAAAAAAAAAAAAAAAAAAAAAAAAAAAAAAAAAAAAAAAAAAAAAAAAAAAAAAAAAAAAAAAAAAAAAAAAAAAAAAAAAAAAAAAAAAAAAAAAAAAAAAAAAAAAAAAAAAAAAAAAAAAAAAAAAAAAAAAAAAAAAAAAAAAAAAAAAAAAAAAAAAAAAAAAAAAAAAAAAAAAAAAAAAAAAAAAAAAAAAAAAAAAAAAAAAAAAAAAAAAAAAAAAAAAAAAAAAAAAAAAAAAAAAAAAAAAAAAAAAAAAAAAAAAAAAAAAAAAAAAAAAAAAAAAAAAAAAAAAAAAAAAAAAAAAAAAAAAAAAAAAAAAAAAAAAAAAAAAAAAAAAAAAAAAAAAAAAAAAAAAAAAAAAAAAAAAAAAAAAAAAAAAAAAAAAAAAAAAAAAAAAAAAAAAAAAAAAAAAAAAAAAAAAAAAAAAAAAAAAAAAAAAAAAAAAAAAAAAAAAAAAAAAAAAAAAAAAAAAAAAAAAAAAAAAAAAAAAAAAAAAAAAAAAAAAAAAAAAAAAAAAAAAAAAAAAAAAAAAAAAAAAAAAAAAAAAAAAAAAAAAAAAAAAAAAAAAAAAAAAAAAAAAAAAAAAAAAAAAAAAAAAAAAAAAAAAAAAAAAAAAAAAAAAAAAAAAAAAAAAAAAAAAAAAAAAAAAAAAAAAAAAAAAAAAAAAAAAAAAAAAAAAAAAAAAAAAAAAAAAAAAAAAAAAAAAAAAAAAAAAAAAAAAAAAAAAAAAAAAAAAAAAAAAAAAAAAAAAAAAAAAAAAAAAAAAAAAAAAAAAAAAAAAAAAAAAAAAAAAAAAAAAAAAAAAAAAAAAAAAAAAAAPZYQCKZpSwjBYySwxlQDBA0mPed3FmbcgIL1iCM4utHsDF8v+LrSVPlxwmDAZyrIYOWBSYYM26FcpLzV6GGGc6kZVs=</c2pa:manifest></metadata>
<g id="Group">
<path id="Vector" d="M16.0046 39.9305V8.79336C16.0046 8.51696 15.7782 8.29464 15.4968 8.29464H0.507888C0.226463 8.29464 9.87129e-05 8.07231 9.87129e-05 7.79591V3.12113C9.87129e-05 2.84473 0.226463 2.6224 0.507888 2.6224H37.9435C38.2249 2.6224 38.4513 2.84473 38.4513 3.12113V4.67138C37.0074 6.08944 36.1999 6.88259 34.7622 8.29464H22.3366C22.0552 8.29464 21.8289 8.51696 21.8289 8.79336V39.9366C21.8289 40.213 21.6025 40.4353 21.3211 40.4353H16.5063C16.2248 40.4353 15.9985 40.213 15.9985 39.9366L16.0046 39.9305Z" fill="#F2E1C4"/>
<path id="Vector_2" d="M56.7559 39.8578V2.98824C56.7559 2.71184 56.9822 2.48951 57.2637 2.48951H62.0234C62.3048 2.48951 62.5312 2.71184 62.5312 2.98824V34.1795C62.5312 34.4559 62.7576 34.6782 63.039 34.6782H87.7982C88.0797 34.6782 88.306 34.9006 88.306 35.177V36.7272C86.8622 38.1453 86.0546 38.9384 84.6169 40.3505H57.2698C56.9884 40.3505 56.762 40.1281 56.762 39.8517L56.7559 39.8578Z" fill="#F2E1C4"/>
<path id="Vector_3" d="M92.6322 5.17352V0.498735C92.6322 0.222334 92.8585 1.09773e-05 93.14 1.09773e-05H97.8997C98.1811 1.09773e-05 98.4075 0.222334 98.4075 0.498735V5.17352C98.4075 5.44992 98.1811 5.67224 97.8997 5.67224H93.14C92.8585 5.67224 92.6322 5.44992 92.6322 5.17352ZM92.6322 39.934V10.4732C92.6322 10.1968 92.8585 9.97449 93.14 9.97449H97.8997C98.1811 9.97449 98.4075 10.1968 98.4075 10.4732V39.934C98.4075 40.2104 98.1811 40.4327 97.8997 40.4327H93.14C92.8585 40.4327 92.6322 40.2104 92.6322 39.934Z" fill="#F2E1C4"/>
<path id="Vector_4" d="M137.93 17.0075V39.9308C137.93 40.2072 137.704 40.4295 137.422 40.4295H132.662C132.381 40.4295 132.155 40.2072 132.155 39.9308V16.9534C132.155 16.6049 132.02 16.2985 131.751 16.0341C131.482 15.7697 131.17 15.6375 130.815 15.6375H113.495C113.14 15.6375 112.828 15.7697 112.559 16.0341C112.29 16.2985 112.155 16.6049 112.155 16.9534V39.9308C112.155 40.2072 111.929 40.4295 111.647 40.4295H106.888C106.606 40.4295 106.38 40.2072 106.38 39.9308V10.47C106.38 10.1936 106.606 9.97131 106.888 9.97131H130.766C130.9 9.97131 131.029 10.0254 131.121 10.1155L137.777 16.653C137.875 16.7491 137.924 16.8753 137.924 17.0015L137.93 17.0075Z" fill="#F2E1C4"/>
<path id="Vector_5" d="M143.684 33.4022V17.0104C143.684 16.8782 143.739 16.752 143.831 16.6619L150.487 10.1244C150.585 10.0282 150.714 9.98017 150.842 9.98017H168.064C168.199 9.98017 168.327 10.0342 168.419 10.1244L175.075 16.6619C175.173 16.758 175.222 16.8842 175.222 17.0104V27.5437C175.222 27.8201 174.996 28.0424 174.714 28.0424H149.955C149.674 28.0424 149.447 28.2647 149.447 28.5411V33.4502C149.447 33.7987 149.582 34.1052 149.851 34.3696C150.12 34.6339 150.432 34.7661 150.787 34.7661H174.714C174.996 34.7661 175.222 34.9885 175.222 35.2649V39.9397C175.222 40.2161 174.996 40.4384 174.714 40.4384H150.836C150.701 40.4384 150.573 40.3843 150.481 40.2942L143.825 33.7567C143.727 33.6605 143.678 33.5344 143.678 33.4082L143.684 33.4022ZM149.967 22.7367H168.896C169.178 22.7367 169.404 22.5144 169.404 22.238V16.9563C169.404 16.6078 169.282 16.3013 169.031 16.037C168.78 15.7726 168.48 15.6404 168.119 15.6404H150.799C150.444 15.6404 150.132 15.7726 149.863 16.037C149.594 16.3013 149.459 16.6078 149.459 16.9563V22.238C149.459 22.5144 149.686 22.7367 149.967 22.7367Z" fill="#F2E1C4"/>
<path id="Vector_6" d="M181.848 21.0033V17.0015C181.848 16.8693 181.903 16.7431 181.995 16.653L188.652 10.1155C188.749 10.0194 188.878 9.97131 189.006 9.97131H206.228C206.363 9.97131 206.491 10.0254 206.583 10.1155L213.239 16.653C213.337 16.7491 213.386 16.8753 213.386 17.0015V19.0685C213.386 19.3449 213.16 19.5672 212.879 19.5672H208.064C207.782 19.5672 207.556 19.3449 207.556 19.0685V16.9534C207.556 16.6049 207.427 16.2985 207.183 16.0341C206.932 15.7697 206.632 15.6375 206.271 15.6375H188.951C188.596 15.6375 188.284 15.7697 188.015 16.0341C187.746 16.2985 187.612 16.6049 187.612 16.9534V21.0514C187.612 21.3999 187.746 21.7063 188.015 21.9707C188.284 22.2351 188.596 22.3673 188.951 22.3673H206.222C206.357 22.3673 206.485 22.4214 206.577 22.5115L213.233 29.049C213.331 29.1451 213.38 29.2713 213.38 29.3975V33.3993C213.38 33.5315 213.325 33.6577 213.233 33.7478L206.577 40.2853C206.479 40.3814 206.351 40.4295 206.222 40.4295H189C188.866 40.4295 188.737 40.3754 188.645 40.2853L181.989 33.7478C181.891 33.6517 181.842 33.5255 181.842 33.3993V31.4885C181.842 31.2121 182.069 30.9898 182.35 30.9898H187.11C187.391 30.9898 187.618 31.2121 187.618 31.4885V33.4474C187.618 33.7959 187.752 34.1023 188.021 34.3667C188.291 34.6311 188.603 34.7633 188.957 34.7633H206.277C206.632 34.7633 206.938 34.6311 207.189 34.3667C207.44 34.1023 207.562 33.7959 207.562 33.4474V29.3494C207.562 29.0009 207.434 28.6945 207.189 28.4301C206.938 28.1657 206.638 28.0335 206.277 28.0335H189.006C188.872 28.0335 188.743 27.9794 188.652 27.8893L181.995 21.3518C181.897 21.2557 181.848 21.1295 181.848 21.0033Z" fill="#F2E1C4"/>
</g>
</svg>
