<svg width="28" height="28" viewBox="0 0 28 28" fill="none" xmlns="http://www.w3.org/2000/svg">
<mask id="mask0_298_5771" style="mask-type:alpha" maskUnits="userSpaceOnUse" x="0" y="0" width="28" height="28">
<rect width="28" height="28" fill="#F7C46B"/>
</mask>
<g mask="url(#mask0_298_5771)">
<path d="M22.6829 23.9173C20.4843 23.9173 18.2755 23.4061 16.0565 22.3837C13.8377 21.3613 11.7972 19.9192 9.93502 18.0572C8.08041 16.195 6.64191 14.1562 5.61952 11.9409C4.59713 9.72579 4.08594 7.51894 4.08594 5.32036C4.08594 4.97036 4.2026 4.67675 4.43594 4.43953C4.66927 4.2025 4.96094 4.08398 5.31094 4.08398H9.11602C9.4106 4.08398 9.67048 4.18014 9.89565 4.37244C10.1208 4.56455 10.264 4.80197 10.3253 5.08469L10.9941 8.51732C11.0403 8.83582 11.0306 9.1095 10.9649 9.33836C10.899 9.56722 10.7808 9.75943 10.6102 9.91498L7.91581 12.5379C8.34942 13.3321 8.84487 14.0833 9.40215 14.7917C9.95923 15.4998 10.5624 16.1762 11.2116 16.8208C11.8518 17.4611 12.5323 18.0557 13.2533 18.6046C13.9743 19.1535 14.7529 19.6643 15.589 20.137L18.207 17.4963C18.3896 17.3063 18.6106 17.1731 18.8702 17.0967C19.1296 17.0205 19.3992 17.0018 19.679 17.0407L22.9186 17.7004C23.2131 17.7782 23.4536 17.9285 23.6399 18.1514C23.8261 18.3742 23.9193 18.627 23.9193 18.9097V22.6923C23.9193 23.0423 23.8008 23.334 23.5637 23.5673C23.3265 23.8007 23.0329 23.9173 22.6829 23.9173Z" fill="#F7C46B"/>
</g>
</svg>
