<svg width="1919" height="692" viewBox="0 0 1919 692" fill="none" xmlns="http://www.w3.org/2000/svg">
<path d="M186.05 623.126C192.904 621.511 197.284 621.672 204.135 623.376C204.009 642.138 203.819 660.973 204.281 679.746C204.371 683.375 203.354 689.405 200.469 692.008C196.163 686.808 200.871 634.976 198.028 624.258C194.652 622.718 189.888 623.109 186.05 623.126ZM1636.99 618.57C1639.76 622.637 1638.29 683.039 1637.77 692.008L1633.88 690.53C1632.61 688.053 1633.49 625.51 1633.52 617.662L1636.99 618.57ZM1509.21 617.773C1515.48 618.123 1521.1 617.922 1526.16 621.928L1525.92 622.826C1519.69 624.367 1510.6 621.937 1504.24 622.46C1476.71 624.723 1470.9 664.57 1489.4 680.745C1497.81 688.101 1505.53 687.698 1515.69 686.967C1518.84 686.286 1523.76 684.656 1526.36 686.658C1523.78 689.681 1517.83 690.895 1513.82 691.451C1478.24 696.383 1462.51 656.398 1482.05 630.337C1488.72 621.449 1498.4 618.776 1509.21 617.773ZM1555.95 620.043C1559.33 617.382 1603.19 617.408 1607.18 619.903L1607.66 622.653C1602.29 623.53 1589.4 623.219 1583.34 623.212C1583.69 635.5 1583.46 647.978 1583.72 660.294C1583.88 667.737 1585.9 686.713 1580.1 691.828C1578.14 688.727 1578.58 631.843 1578.19 622.789C1573.83 622.849 1558.64 623.872 1556.16 622.292L1555.95 620.043ZM1667.82 618.139C1672.39 622.06 1688.26 676.717 1690.9 685.808C1694.99 668.871 1707.32 638.038 1714.69 621.153C1715.69 618.873 1716.83 618.91 1718.73 618.521L1719.83 619.774L1718.76 621.689C1715.34 630.272 1693.8 689.95 1690.98 691.795L1689.48 690.903C1685.72 684.807 1666 625.674 1664.25 617.745L1667.82 618.139ZM997.825 659.924C999.318 658.359 999.581 657.417 1000.45 655.472C1001.2 661.138 1002.86 689.75 997.542 691.676C994.354 687.661 995.807 660.868 995.948 654.052L997.825 659.924ZM795.966 618.703C809.271 617.874 834.701 618.571 832.448 640.48C831.72 647.554 823.287 653.108 817.551 656.586L817.945 656.847C824.103 661.002 824.965 661.292 828.173 668.578C830.497 673.854 833.924 683.887 831.787 689.518L830.29 689.121C827.421 685.499 826.493 680.24 825.308 675.683C822.83 666.307 820.98 663.383 813.063 657.979C807.967 657.309 802.104 657.246 796.913 657.06C797.01 662.967 798.301 688.961 794.679 691.596C792.324 687.968 790.817 625.33 792.704 619.89L795.966 618.703ZM550.312 617.647C595.431 619.772 594.54 684.535 556.112 691.473C521.344 691.299 511.545 659.068 527.66 630.987C532.111 623.233 541.644 619.14 550.312 617.647ZM1138.88 617.689C1145.15 617.703 1152.62 618.524 1157.67 622.618L1156.99 623.414C1152.54 624.423 1144.75 622.127 1139.25 621.97C1109.63 621.117 1099.63 661.97 1118.97 680.206C1126.87 687.656 1134.97 687.426 1145.41 686.831C1148.95 686.219 1153.28 684.929 1156.14 686.68L1155.22 688.203C1144.13 692.989 1125.68 693.03 1117.12 684.792C1091.92 660.572 1104.15 621.746 1138.88 617.689ZM1212.55 617.689C1253.99 618.202 1257.54 684.686 1216.94 691.416L1216.49 691.411C1209.14 691.264 1201.19 690.89 1195.51 685.837C1171.56 664.52 1178.98 622.99 1212.55 617.689ZM1409.7 618.347C1416.56 618.312 1442.94 617.287 1446.96 619.928C1444.79 625.309 1420.7 623.16 1414.63 623.063C1414.63 630.729 1414.96 641.484 1414.51 648.899L1414.51 648.897C1418.65 652.562 1436.48 649.44 1445.12 651.545C1445.12 651.545 1445.13 651.547 1445.13 651.547L1445.13 651.549C1445.13 651.549 1445.13 651.55 1445.14 651.551L1444.12 653.941C1439.12 655.547 1423.8 654.928 1418.26 654.229C1416.69 654.645 1416.76 654.803 1415.34 655.75C1414.12 660.344 1414.6 680.501 1414.59 686.21C1421.43 686.109 1444.41 684.204 1448.43 688.88C1443.65 692.722 1417.49 691.062 1409.63 690.907C1409.52 676.148 1409.51 661.387 1409.61 646.628C1409.4 637.202 1409.43 627.772 1409.7 618.347ZM1277.53 617.564C1279.39 617.877 1280.09 618.286 1281.76 619.049C1282.96 624.473 1282.47 677.729 1282.46 686.618C1291.11 686.343 1300.07 685.891 1308.71 686.416C1312.82 686.665 1313.03 686.64 1315.56 689.567C1311.73 692.367 1284.09 691.117 1277.54 691.046C1277.33 666.553 1277.33 642.057 1277.53 617.564ZM926.734 618.567C961.618 615.308 973.473 644.631 961.214 674.844C958.005 682.757 949.439 688.389 941.378 690.968C895.682 695.44 886.998 635.384 926.734 618.567ZM722.421 618.384C727.813 618.362 756.806 617.084 759.871 620.23L758.533 621.881C754.165 624.26 733.793 623.044 727.236 622.969L727.314 650.561C732.757 650.554 754.611 649.723 757.614 651.969L756.96 653.966C751.726 656.826 737.413 653.702 728.885 654.982C726.933 656.8 727.551 657.127 727.414 660.51L727.314 686.148C733.373 686.357 755.614 685.72 759.688 686.67L760.253 688.911L759.146 690.575C751.833 691.73 730.76 690.936 722.407 690.821C722.676 666.794 722.446 642.436 722.421 618.384ZM256.488 616.839C261.171 621.221 259.418 643.952 259.3 650.479C271.327 650.489 283.917 650.3 295.882 650.939L295.889 650.941L298.005 649.823C300.567 641.101 295.609 621.946 300.586 618.638L303.76 619.056C304.666 620.51 304.826 688.076 302.726 691.161C293.041 689.779 303.024 659.372 297.129 654.768L288.982 654.454C292.319 653.87 295.67 653.371 299.031 652.954L299.03 652.945C295.669 653.362 292.317 653.861 288.98 654.445C280.244 655.066 268.631 654.668 259.663 654.597C259.696 659.59 260.209 687.526 259.246 690.484L256.743 691.072C255.861 690.446 255.041 690.166 254.994 689.391C254.403 679.564 253.807 622.077 256.488 616.839ZM1345.85 617.341C1349.65 618.196 1350.05 619.337 1350.12 623.283C1350.53 644.168 1350.27 665.472 1350.18 686.325C1359.57 686.589 1372.26 684.673 1381.19 687.352C1382.13 687.633 1382.58 689.443 1383.13 690.675C1375.92 691.449 1353.74 691.037 1345.62 691.067C1345.51 666.491 1345.58 641.914 1345.85 617.341ZM1747.03 618.466C1755.49 618.544 1776.25 617.248 1783.1 619.928L1783.71 621.406C1780.76 623.87 1756.78 623.114 1751.39 623.138L1751.33 650.654C1757.78 650.626 1777.72 649.514 1781.56 652.319L1781.36 654.46C1774.62 655.856 1757.7 651.861 1751.65 656.768L1751.44 661.521L1751.21 686.236C1758.05 686.21 1780.33 685.296 1784.96 687.402L1785.56 689.889C1780.7 691.751 1754.33 691.016 1747.27 690.947C1745.89 669.804 1746.84 640.216 1747.03 618.466ZM340.886 618.68C348.257 618.38 374.126 616.39 378.828 621.12C376.197 624.204 351.601 622.19 345.291 623.223L345.408 624.517C345.962 631.41 346.008 644.422 345.406 650.466C353.022 650.536 370.066 650.189 376.356 653.176L373.39 652.51L374.546 653.768C363.74 654.858 356.492 654.962 345.579 654.888C345.733 665.21 346.11 676.098 345.335 686.346C352.603 686.35 372.361 686.005 378.381 687.777L379.268 689.014C368.121 691.754 352.363 691.07 340.539 691.025C340.579 686.884 340.463 672.852 341.001 669.525C340.262 653.845 340.816 634.649 340.884 618.705C340.88 618.698 340.877 618.689 340.873 618.681C340.877 618.681 340.882 618.681 340.886 618.68ZM452.566 618.553C464.358 618.223 477.329 616.685 486.846 625.216C495.29 632.785 494.861 644.47 486.968 652.317C478.328 660.908 470.04 660.222 458.777 660.337L457.075 660.749C454.995 667.886 459.409 687.152 454.694 690.917L452.924 690.249C450.857 684.241 451.854 627.601 452.566 618.553ZM651.14 617.034C656.652 622.077 667.649 672.91 671.82 684.257C674.391 669.298 684.128 632.125 689.771 618.455L692.474 618.592C692.448 625.264 675 685.44 671.757 690.298L669.886 690.41C663.719 685.703 655.782 637.916 650.869 626.993C647.626 637.887 635.438 683.297 631.506 690.302L629.906 690.706C623.962 683.879 619.508 656.073 615.91 646.398C613.443 639.765 608.837 625.079 610.818 618.535L613.226 619.191C617.81 629.9 625.939 669.632 630.596 684.39C633.359 673.697 646.383 623.303 651.14 617.034ZM1220.35 622.818C1216.9 621.681 1209.29 622.274 1205.54 622.631C1175.71 637.014 1180.7 694.115 1222.02 686.471C1225.68 684.668 1227.68 683.594 1230.56 680.848C1247.29 664.944 1243.53 630.473 1220.35 622.818ZM943.086 623.755C939.064 621.724 931.711 622.194 927.203 622.609C918.153 626.714 912.776 631.704 909.248 641.391C905.722 651.235 906.181 662.067 910.526 671.576C916.658 684.67 926.733 688.529 940.412 686.721C967.008 676.111 968.371 636.523 943.086 623.755ZM557.753 622.651C554.148 621.695 547.663 622.277 543.808 622.603C514.881 639.086 518.747 693.141 560.841 686.591C569.762 681.677 575.177 675.374 578.065 665.451C582.82 649.118 575.493 627.355 557.753 622.651ZM996.532 618.3C1004.4 618.247 1026.19 617.756 1032.67 619.198L1033.27 620.43C1028.48 625.415 1008.3 622.824 1000.73 622.544C1000.73 627.96 1000.99 639.771 1000.2 644.568L998.097 648.524L998.099 648.526L1000.21 644.563L1001 650.136C1006.36 653.201 1028.82 648.567 1031.14 653.793C1028.33 657.102 1005.93 655.687 1000.45 655.464C999.583 657.408 999.32 658.35 997.827 659.915L995.95 654.043C995.88 646.18 995.948 641.122 996.733 633.324C996.733 633.319 996.734 633.314 996.733 633.308C996.542 628.308 996.482 623.303 996.532 618.3ZM482.648 651.488C498.087 626.892 475.992 621.868 456.286 622.765L456.18 656.046C465.645 656.112 475.062 657.402 482.648 651.488ZM824.441 628.862C816.278 621.913 807.077 622.206 797.011 622.567L796.792 653.633C806.971 653.362 813.357 653.871 822.554 649.202C827.618 643.717 831.551 634.914 824.441 628.862ZM175.418 619.981C177.713 617.757 226.209 617.887 228.803 619.748C225.115 625.363 210.676 622.84 204.133 623.368C197.282 621.664 192.902 621.504 186.048 623.119C180.795 623.213 179.915 624.091 176.035 621.834L175.418 619.981ZM870.256 271.032C978.508 269.74 1086.77 273.295 1194.71 281.688C1349.61 291.788 1503.88 309.98 1656.89 336.189C1713.1 345.329 1769.08 355.906 1824.74 367.908C1841.03 371.547 1908.98 383.682 1918.49 389.314C1898.45 385.118 1869.2 383.479 1848.29 381.308L1716.2 367.725C1741.57 429.717 1767.18 495.742 1791.43 558.284C1756.04 557.626 1719.72 558.296 1684.14 557.895C1659.72 490.989 1634.79 424.269 1609.36 357.74L1478.85 347.564C1460.24 346.107 1441.4 345.162 1422.88 343.077C1405.03 383.912 1386.93 435.052 1370.53 477.327L1351.77 525.522C1348.07 535.05 1342.38 548.377 1340.25 557.998C1305.07 558.29 1269.87 558.262 1234.68 557.915C1262.35 485.57 1292.74 411.189 1319.29 338.876C1281.91 335.377 1241.67 336.459 1203.99 334.622C1148.22 331.904 1094.94 329.118 1039.19 334.086C1052.19 353.244 1069.83 384.647 1082.29 405.316L1164.44 541.223C1167.96 546.703 1171.33 552.278 1174.54 557.94C1138.45 558.72 1100.42 558.22 1064.24 557.9C1036.04 509.49 1008.19 460.878 980.688 412.071C969.792 393.014 954.333 363.152 942.447 345.798L845.423 346.426L845.616 557.937C813.725 558.296 781.405 557.583 749.64 558.401L749.413 333.5C715.219 334.031 678.153 333.895 644.265 335.598C643.488 409.339 643.932 484.644 644.392 558.392C612.615 557.515 577.146 558.094 545.142 558.291L545.446 340.061C522.066 340.762 499.391 343.202 476.121 344.713L362.055 351.813C327.272 354.171 293.326 357.016 258.374 358.344L258.261 557.969C225.817 558.173 193.371 558.176 160.928 557.977L161.181 369.623C134.576 371.335 108.331 376.009 82.0576 378.999C53.648 382.233 28.209 385.249 0 389.752C11.2939 384.584 28.0871 380.866 40.2266 377.037C68.6798 368.061 96.0613 361.252 124.915 354.334C347.129 302.56 574.268 274.851 802.408 271.686C824.203 270.841 848.259 271.27 870.256 271.032ZM188.652 1.18635C211.863 1.22066 235.073 1.39487 258.281 1.71076L258.449 299.964C246.288 302.9 233.026 305.54 220.73 308.217C200.722 310.963 181.609 316.423 161.512 319.03C162.806 214.028 161.59 106.697 161.27 1.58381L188.652 1.18635ZM1570.3 1.67951C1589.12 47.1945 1607.06 94.0693 1625.41 139.873C1649.05 198.171 1672.34 256.611 1695.28 315.19C1676.68 311.988 1657.6 309.477 1638.92 306.527C1622.08 303.869 1604.52 300.513 1587.67 298.858L1537.63 164.036C1529.78 143.053 1521.77 122.132 1513.58 101.277C1491.49 149.094 1475.92 204.569 1454.81 253.178C1451.3 261.248 1448.11 269.672 1445.09 277.933C1434.83 277.524 1418.57 275.299 1407.96 274.269C1389.56 272.484 1367.42 270.799 1349.28 267.624C1355.42 250.262 1364.14 230.403 1370.93 212.919L1424.73 74.9217C1433.96 51.3403 1445.2 25.6001 1452.64 1.64533L1484.89 1.18635L1570.3 1.67951ZM644.184 1.37775C644.543 41.4697 643.975 82.6045 644.023 122.836C644.317 166.106 644.368 209.379 644.179 252.649C638.73 252.883 633.25 253.401 627.812 253.859C600.357 256.161 572.888 258.295 545.408 260.261L545.257 88.076C545.242 69.024 544.072 19.3696 546.111 2.51154C548.184 0.875699 551.859 1.25898 554.764 1.18635L644.184 1.37775ZM925.435 0.17463C965.32 -0.108984 1013.36 -1.45226 1050.83 11.7752C1095.98 27.6017 1137.86 59.5056 1158.67 103.237C1178.67 145.271 1179.1 196.463 1160.6 238.949C1158.73 243.232 1157.16 247.966 1155.6 252.406C1135.66 251.725 1115.71 250.929 1095.76 250.015C1080.95 249.377 1062.21 248.921 1047.72 247.043C1089.96 195.933 1089.37 126.5 1024.8 95.3787C995.316 83.8713 956.178 87.2667 924.005 87.3778C897.677 87.5402 871.347 87.5274 845.02 87.3397C845.473 140.016 845.636 192.696 845.508 245.374C813.553 245.857 781.602 246.571 749.659 247.517L749.406 1.85432C808.086 1.78367 866.764 1.22326 925.435 0.17463Z" fill="#547255"/>
</svg>
