<svg width="72" height="55" viewBox="0 0 72 55" fill="none" xmlns="http://www.w3.org/2000/svg">
<path d="M34.3857 0.0722656C38.4903 -0.395982 42.9972 1.44647 45.5781 4.66992C46.5657 4.8874 47.8766 5.05139 48.8906 5.19238C52.5425 5.70021 56.1005 5.8534 59.7822 5.85059C60.913 13.5913 60.4557 20.3938 58.0176 27.9053C59.4427 27.9573 60.9903 28.0891 62.4248 28.1816L71.1172 28.7373C70.9445 29.086 69.356 32.213 69.333 32.4346C69.1243 34.4039 68.8472 37.8681 68.7803 39.8594C68.7748 40.0826 69.838 43.328 69.9521 43.6846C69.1444 43.6574 68.3087 43.6085 67.502 43.5547C61.6806 43.1655 55.8122 42.9886 49.9961 42.5654C45.9986 47.3773 41.7246 51.0469 36.1924 54.0693L35.5566 54.4102C30.0539 51.6284 25.0325 47.3043 21.1172 42.5674C20.3384 42.6327 19.5247 42.6724 18.7432 42.709C12.8896 42.9841 7.02287 43.4368 1.16992 43.6816C1.25917 43.3913 2.32554 40.1157 2.32324 39.915C2.27506 37.8281 1.99797 34.5594 1.77734 32.4111C1.76052 32.2533 1.20498 31.1663 1.11914 30.9941L0 28.7412C4.32293 28.4469 8.76845 28.1337 13.0898 27.9053C10.8523 20.8402 10.0393 13.1836 11.3447 5.85059C15.7206 5.87272 21.1972 5.54533 25.5137 4.67285C27.8285 1.94325 30.819 0.392138 34.3857 0.0722656ZM47.7998 42.5752C47.2563 43.2673 46.3091 44.2332 45.7002 44.8525C42.6406 47.965 39.341 50.3692 35.5605 52.5176C30.826 50.0036 26.8476 46.5408 23.2891 42.5752L22.2021 42.5771C25.3425 46.2089 28.5671 49.1785 32.6514 51.7568C33.5155 52.3024 34.64 53.0011 35.5596 53.4619C40.3588 50.8183 45.472 46.903 48.8857 42.5771L47.7998 42.5752ZM35.543 43.1279C35.2867 43.8324 34.9985 44.5835 34.7637 45.291C34.0099 45.3036 33.2047 45.3031 32.4551 45.335C33.053 45.8078 33.6469 46.286 34.2354 46.7715C34.0491 47.5174 33.8658 48.3038 33.666 49.043C33.9359 48.8583 35.4098 47.7982 35.5762 47.7422C36.2012 48.181 36.8715 48.6354 37.4824 49.0889L36.833 46.8242L38.6943 45.3281L36.3564 45.3086C36.2025 44.8771 35.7292 43.4611 35.543 43.1279ZM37.8721 27.8057C35.1695 27.7914 32.1839 27.7526 29.4912 27.8486C23.8234 27.9331 18.1575 28.1511 12.5 28.502L4.84668 28.9941C3.62859 29.0727 2.05975 29.2184 0.87793 29.2393C1.01044 29.5071 2.31015 32.093 2.32715 32.2324C2.57516 34.5168 2.7921 37.625 2.91309 39.9102C2.92023 40.0911 2.03166 42.7988 1.94727 43.0908C8.10067 42.6342 14.3292 42.4496 20.4932 42.0479C22.9206 41.8894 25.7136 42.0064 28.1641 42.0059L41.583 42.0068C44.35 42.0053 47.1399 41.9279 49.9043 42.0137C53.6133 42.1288 57.3361 42.4208 61.042 42.6279L66.3652 42.9258C67.2089 42.9728 68.36 43.0038 69.1748 43.0938C69.0677 42.7615 68.2114 40.1789 68.2168 39.9355C68.2911 37.6304 68.5576 34.6149 68.7705 32.3145C68.7921 32.0944 70.0782 29.5676 70.2373 29.2393C65.9042 29.0537 61.3749 28.6566 57.0225 28.4033C50.6451 28.0411 44.2593 27.8423 37.8721 27.8057ZM31.3193 28.3682C35.1828 28.2644 39.5545 28.3427 43.4111 28.4277C52.074 28.6502 60.7298 29.0916 69.3701 29.752C69.2464 29.9997 68.2753 31.8937 68.2559 32.0684C67.9745 34.565 67.7818 37.4559 67.6416 39.9707C67.6341 40.1242 68.3179 42.2308 68.3984 42.4854C61.1389 42.1746 53.8652 41.466 46.6016 41.4639L27.4082 41.4648C25.9692 41.4648 24.5221 41.48 23.084 41.4648C20.5519 41.4392 18.0377 41.6337 15.5088 41.7744L2.70703 42.4824C2.80722 42.1687 3.47528 40.1912 3.46289 39.9404C3.33223 37.4287 3.13091 34.601 2.87305 32.1025C2.85965 31.9776 1.86008 29.9871 1.74609 29.7559C2.5584 29.6561 3.68507 29.6197 4.52539 29.5654L9.85059 29.2227C16.9971 28.7353 24.1567 28.4507 31.3193 28.3682ZM9.85449 30.79C9.6201 30.8019 9.31679 30.8093 9.08984 30.834C7.71423 30.9309 6.21346 31.0704 4.84473 31.1328C5.48327 31.8967 5.38478 32.4649 5.45898 33.416L5.85254 38.5195C5.92239 39.4231 6.09961 40.0456 5.62207 40.8672C7.15991 40.7045 8.94464 40.6011 10.4941 40.5059L10.4717 39.9453C10.4531 39.6801 10.3994 38.5483 10.3408 38.3809C10.2247 38.3861 10.2248 38.3893 10.1338 38.4385C9.58184 38.7381 8.63504 38.6809 7.95801 38.7588C7.90873 38.0746 7.8477 37.3662 7.80957 36.6836C8.44901 36.6402 9.07367 36.5481 9.6709 36.8154C9.62618 36.0061 9.57663 35.1967 9.52344 34.3877C8.82199 34.7688 8.46783 34.6968 7.67188 34.7832C7.62825 34.1656 7.56421 33.4756 7.54297 32.8623C8.34552 32.8125 9.31661 32.6417 10.0215 32.9707C9.95755 32.2929 9.93763 31.4312 9.85449 30.79ZM60.7061 30.7441C60.6564 31.4988 60.6174 32.3456 60.541 33.0918C61.1838 32.6841 61.567 32.7004 62.3076 32.7891C62.1005 35.3745 61.9537 37.9908 61.7686 40.5801C62.402 40.625 63.2189 40.6578 63.835 40.7305C63.8752 40.1797 63.9413 39.518 63.958 38.9746C64.1379 37.0847 64.188 34.7668 64.4229 32.9414C65.2121 32.9754 65.4396 32.9895 66.0859 33.4463C66.1539 32.6993 66.2333 31.8885 66.2646 31.1396L60.7061 30.7441ZM16.0508 30.4287C15.7836 30.4391 15.475 30.445 15.2119 30.4678C14.2157 30.5152 13.2199 30.5713 12.2246 30.6357C12.7047 31.4787 12.462 32.2064 12.3516 33.1328L11.9912 36.1396C11.8546 37.2789 11.7434 38.537 11.54 39.6621C11.5008 39.8787 11.2323 40.2839 11.083 40.4639L13.9795 40.291C13.6762 39.7352 13.6377 39.5152 13.7422 38.8965C14.8726 38.8159 16.1939 38.4566 15.3828 40.2207C16.3469 40.1491 17.3119 40.13 18.2705 40.0615C18.0423 39.811 17.8408 39.5729 17.7148 39.2539C17.4878 38.6785 15.8497 31.4924 15.8818 31.0889C15.8997 30.8653 15.9746 30.6378 16.0508 30.4287ZM59.5332 31.9004C59.0901 30.5734 57.6047 30.2755 56.376 30.3926C54.6733 30.7406 53.9066 31.8737 54.1875 33.6455C54.3089 34.4102 54.953 35.0461 55.4609 35.5684C56.0009 36.1874 57.8078 37.0814 57.3271 38.0898C57.2606 38.2279 56.9767 38.4283 56.8203 38.4404C55.768 38.522 55.9336 37.7503 56.3164 37.1729C55.5642 37.1232 54.8114 37.0847 54.0576 37.0586C54.0006 37.954 53.8873 38.8455 54.5342 39.5674C55.2336 40.3478 56.234 40.4352 57.208 40.375C58.4576 40.1255 59.243 39.5138 59.4287 38.248C59.8168 35.7694 57.3602 35.0141 56.2637 33.3311C56.1607 33.1729 56.1798 32.8056 56.2998 32.6709C56.9991 31.8916 58.1855 32.4423 57.3389 33.5654C58.0962 33.6238 58.8548 33.6705 59.6143 33.7061C59.6551 33.093 59.7314 32.4942 59.5332 31.9004ZM21.6572 30.0381C18.4952 30.3115 18.5259 33.4993 18.7041 35.9824C18.8557 38.0941 19.8484 40.4137 22.3701 40.0371C25.0735 39.618 24.913 36.7178 24.8047 34.6689C24.0001 34.6971 23.1798 34.7348 22.376 34.7334C22.0314 34.6811 21.9552 34.6652 21.6289 34.5098C21.6715 35.2569 21.6829 36.0041 21.7266 36.7451C22.1648 36.5041 22.3372 36.4801 22.8389 36.4346C22.7865 36.8628 22.7048 37.7946 22.3291 38.0068C21.373 38.5336 20.9617 37.2742 20.873 36.5586C20.7302 35.4044 20.6383 34.0529 20.8584 32.9072C21.1403 31.4401 22.9498 31.8173 22.2637 33.4756C23.0892 33.4325 23.9151 33.3973 24.7412 33.3701C24.5276 31.5978 23.6944 29.9411 21.6572 30.0381ZM48.4561 30.1572C48.9931 30.9856 48.8253 31.6084 48.7939 32.5576L48.6182 37.6826C48.5894 38.5096 48.6901 39.2294 48.1152 39.8906C49.7515 39.934 51.3821 40.0277 53.0137 40.0732L53.1289 37.8887C52.5901 38.1466 51.2544 38.1771 50.7334 38.0332L50.6992 37.9307L50.7676 35.9854C51.5056 36.0204 51.925 35.9928 52.6055 36.291C52.6656 35.5486 52.6962 34.6471 52.7119 33.8945C52.0483 34.1801 51.5621 34.107 50.8477 34.0684C50.8691 33.4336 50.895 32.7985 50.9248 32.1641C51.7492 32.1917 52.6552 32.139 53.375 32.5254C53.3985 31.809 53.4225 31.0508 53.4717 30.3369C51.8031 30.2909 50.122 30.1825 48.4561 30.1572ZM40.7441 29.9648C41.3169 30.8063 41.1482 31.4987 41.1367 32.4863L41.0869 35.8066C41.0712 36.8084 41.0957 37.9715 41 38.9736C40.9796 39.1855 40.7552 39.5243 40.6328 39.709L43.5049 39.7568C43.0792 39.0749 43.1092 38.6672 43.127 37.8848C43.1494 36.8982 43.1852 35.9085 43.1973 34.9219C43.7293 36.4568 44.3659 38.2505 44.833 39.7988C45.1876 39.8051 47.0765 39.9098 47.2471 39.7871L47.1836 39.6768C47.0539 39.4023 46.9828 39.1753 46.9629 38.8711C46.9069 38.0294 47.0942 31.1889 47.2559 30.7188C47.327 30.513 47.4834 30.2926 47.6152 30.1221C46.6314 30.0917 45.6474 30.0668 44.6631 30.0469C44.7657 30.2084 44.9529 30.5005 44.9717 30.6816C45.1166 32.0635 44.988 33.7108 44.9414 35.0928C44.4084 33.396 43.8606 31.7035 43.2998 30.0156L40.7441 29.9648ZM27.9756 30.0127C27.4829 30.0205 26.9516 30.02 26.4619 30.042L25.3115 30.0693C25.4529 30.3155 25.5286 30.5251 25.5664 30.8066C25.6949 31.7631 25.8718 38.8204 25.7344 39.3916C25.7044 39.5161 25.6499 39.631 25.5977 39.7471C25.5888 39.7668 25.5799 39.7869 25.5713 39.8066L29.4131 39.7266L30.3125 39.71C30.3067 38.9871 30.2964 38.2639 30.2812 37.541C29.4878 37.9274 28.7419 37.8053 27.8574 37.8262L27.7666 33.2021C27.7488 32.3554 27.6005 30.7222 27.9756 30.0127ZM34.126 29.9404L30.7764 29.9639C31.3622 30.7931 31.2184 31.4539 31.2305 32.4287L31.2607 35.6719C31.2702 36.7055 31.3268 37.8973 31.2666 38.9336C31.255 39.1298 31.0252 39.5326 30.9102 39.7031L35.7979 39.6797V37.8525C35.7958 37.782 35.8005 37.6286 35.7744 37.5752C35.3793 37.5016 35.3432 37.7264 35.0752 37.7559C34.5856 37.8097 33.8751 37.7489 33.3672 37.7588L33.3496 35.7012C34.0216 35.6869 34.61 35.6304 35.2188 35.9541L35.2109 33.5215C34.5416 33.8233 34.0783 33.7831 33.3457 33.7764L33.3379 31.8662C34.1942 31.8519 35.0127 31.7588 35.7979 32.1035L35.8018 29.9385L34.126 29.9404ZM14.3242 33.6348C14.4349 33.8382 15.0512 36.7357 14.9688 36.8916L14.7852 36.9141C14.519 36.9151 14.2428 36.9396 13.9766 36.959C14.0136 36.2711 14.1998 34.2801 14.3242 33.6348ZM45.5586 5.57715L45.5137 5.69629C45.5785 6.03874 45.7407 6.2188 45.9697 6.45898C50.1964 7.05187 54.0142 7.55015 58.3262 7.52734C59.048 13.1293 58.7095 18.817 57.3291 24.2939C57.0613 25.3513 56.6704 26.7774 56.2812 27.8008L57.1523 27.8369C59.5528 20.7808 59.9738 14.0111 59.0615 6.69629C55.2179 6.70131 51.3785 6.42553 47.5752 5.87109C47.2202 5.81635 45.7903 5.5384 45.5586 5.57715ZM24.6777 5.67773C20.5101 6.36786 16.2918 6.70869 12.0674 6.69629C10.9938 13.0395 11.737 21.823 13.9658 27.8359L14.8047 27.8027C14.7869 27.6571 14.3592 26.3532 14.2881 26.1182C13.9785 25.0902 13.7062 24.0515 13.4717 23.0039C12.3462 17.9239 12.1128 12.6863 12.7822 7.52637C16.2176 7.54352 20.5949 7.16758 23.9678 6.63086C24.1942 6.3057 24.4311 5.98779 24.6777 5.67773ZM18.123 26.5791C17.6977 26.3925 17.2646 26.1966 16.8379 26.0156L17.3721 27.124L17.4189 27.2451C17.3186 27.4403 17.2218 27.5183 17.0684 27.6729C17.4588 27.6622 17.8495 27.6444 18.2393 27.6191L18.998 26.9297C19.037 26.6668 19.1774 25.8306 19.1299 25.6162C18.7966 25.9337 18.4502 26.257 18.123 26.5791ZM43.8799 14.5703C43.1102 16.9126 45.4899 18.5911 47.1465 19.7939C46.6283 19.877 46.2305 19.8781 45.707 19.8604C47.4709 20.9488 48.6209 21.974 49.9297 23.5918C49.1347 23.4092 48.8785 23.4132 48.0869 23.4336C50.1012 24.8357 51.0285 25.8318 52.7061 27.6123L53.4033 27.6523C52.0025 26.1234 51.2728 25.2745 49.6611 23.9854C50.2343 23.9969 50.4852 24.0073 51.0322 24.165C49.9494 22.5928 48.6463 21.2515 47.0273 20.2236C47.5144 20.2135 47.9071 20.2024 48.3926 20.1074C46.8479 19.0335 45.1846 17.638 44.2744 15.9307C44.1625 15.7201 44.0093 15.0584 43.9648 14.8047C43.9544 14.747 43.9453 14.689 43.9375 14.6309L43.8799 14.5703ZM40.8701 2.94727C38.9885 1.99099 36.6467 1.273 34.5156 1.42773C33.32 1.48465 32.5786 1.59576 31.418 1.89453C31.8909 1.99193 32.2043 2.05425 32.6641 2.20898C30.0737 2.56542 28.1194 3.5125 26.21 5.30176C27.1825 4.99229 27.6145 4.93354 28.6455 5.11035C26.3266 6.16764 24.5687 7.72293 23.6436 10.1631C23.4928 10.5695 23.3679 10.9851 23.2695 11.4072C24.5908 10.4718 25.1693 9.97224 26.7744 9.52148C24.4341 11.6108 23.0059 14.5347 22.7959 17.665C23.6187 16.4265 24.2091 15.5193 25.5088 14.708C25.1367 17.9893 24.434 20.1654 22.6055 22.9551C23.2138 22.6357 23.5088 22.4373 24.0293 21.9873C23.2893 23.7919 22.2157 25.1481 20.7744 26.4551C20.5486 26.6599 19.5967 27.4077 19.502 27.5381C19.7436 27.5895 19.8693 27.581 20.084 27.4395C22.1945 26.0479 23.2089 24.6238 24.4844 22.4766C25.1392 21.3751 25.7803 20.2654 26.4082 19.1484C25.6984 21.3692 25.6206 23.5698 26.9346 25.6133C27.205 23.6816 27.9843 22.039 29.3867 20.667C29.1294 23.0217 29.5624 24.804 31.3984 26.4014C31.4957 24.7943 31.49 24.0989 32.1533 22.6074C32.598 24.3727 33.2483 25.6426 34.8887 26.6133C35.2604 26.8329 35.6545 27.0121 36.0645 27.1475C35.7177 26.1437 35.5944 25.6317 35.5264 24.5527C35.4688 23.5294 35.5739 22.5025 35.8359 21.5117C36.7268 23.6933 37.9474 24.7598 40.2715 25.2686C39.0427 23.1827 38.3078 21.3321 38.5908 18.8135C37.9171 19.9872 37.7081 20.6789 37.7139 22.0469C36.4187 20.7563 36.1014 19.4871 36.2949 17.6973C34.5536 19.234 34.3995 19.9913 33.8906 22.1934C32.5359 19.994 33.5837 17.3846 34.8291 15.3906C32.9157 15.9958 31.8194 16.9533 30.4824 18.3857C31.4946 15.782 33.0809 14.2055 35.623 13.0918C36.1927 12.8462 36.7781 12.638 37.375 12.4688C36.0934 12.3338 35.5346 12.1483 34.5596 11.2695C35.5749 10.4187 36.4188 9.88058 37.6094 9.28027C36.0301 9.50018 34.9111 8.91488 34.4941 7.31445C33.1384 6.84516 32.137 6.71056 30.7002 6.9873C32.1987 6.06491 33.3662 5.68413 35.1592 5.70508C34.2453 4.9975 34.0839 5.16563 33.1455 4.79395C33.8547 4.73789 34.2454 4.74527 34.9492 4.87598C36.5733 5.17741 37.6538 6.40471 39.1973 6.88965C40.1613 7.19237 41.3852 7.27625 41.4004 5.90039C41.4035 5.63637 41.2773 5.35597 41.2412 5.09766C41.6785 5.427 41.7733 5.52237 42.0537 5.9873C42.8105 5.69795 43.0427 5.75094 43.832 5.83887C43.9281 5.8494 43.953 5.75897 43.9922 5.68359L43.9443 5.28125C44.2973 5.52755 44.4255 5.62879 44.6719 6.00098C44.6536 5.04817 44.5237 4.4591 43.8076 3.77051C43.7088 3.67483 43.6052 3.58329 43.499 3.49609L43.4219 4.12891C42.4375 3.2178 41.3749 2.40173 40.1133 1.9043C40.5297 2.28883 40.6274 2.43348 40.8701 2.94727ZM18.8018 21.5244C18.7106 21.9762 18.6144 22.4274 18.5127 22.877C18.1172 22.948 17.5357 23.0366 17.1562 23.127C17.5381 23.3503 17.9609 23.6101 18.3486 23.8145C18.2965 24.2852 18.238 24.7552 18.1748 25.2246C18.3697 25.0463 19.1113 24.3018 19.3066 24.3086L20.498 24.8867C20.3126 24.4815 20.1041 23.9923 19.9082 23.5996L20.8945 22.5645C20.4365 22.6246 19.9377 22.6739 19.4873 22.7402C19.3603 22.5021 18.9428 21.6851 18.8018 21.5244ZM45.9834 16.5762C45.9839 17.2407 46.6667 17.7046 47.1113 18.1406C47.7499 18.7612 48.5196 19.2224 49.1875 19.7998C49.3193 19.914 49.4347 20.1685 49.4258 20.3389C49.3824 21.1449 49.4028 21.1642 50.0293 21.6572C50.3824 21.7647 50.8893 21.9327 51.2178 22.1035C52.9219 22.9905 54.7252 23.375 56.5811 23.8301C56.8923 22.4946 57.156 21.1481 57.3721 19.7939C54.9441 19.2861 52.9098 18.8323 50.6748 17.7109C49.5956 17.1695 47.1766 16.5771 45.9834 16.5762ZM16.2354 18.6895C15.7786 18.6481 15.3225 18.5963 14.8682 18.5342L15.7871 19.5508L15.2109 20.833C15.6275 20.6367 16.0636 20.4214 16.4844 20.2393L17.5117 21.2168C17.4495 20.7708 17.3941 20.2426 17.3203 19.8066L18.543 19.1143C18.0923 19.0309 17.6421 18.943 17.1934 18.8496C17.1594 18.6655 16.9882 17.5935 16.8936 17.5049L16.2354 18.6895ZM22.7422 18.5742C22.1876 18.7479 22.3341 18.9504 22.3896 19.498L21.1465 20.0869C21.43 20.1671 22.2061 20.3717 22.4375 20.4736L22.5371 21.123C22.8563 20.4674 23.1164 19.9267 23.3711 19.2422C23.2487 19.102 22.8723 18.6446 22.7422 18.5742ZM19.1768 13.8916C19.1178 14.3144 19.0685 14.8737 18.998 15.2773L17.6611 15.6367C18.0796 15.841 18.5002 16.0408 18.9229 16.2363L18.8799 17.6377C19.1293 17.3623 19.5595 16.8491 19.833 16.6523C19.9405 16.6499 19.9517 16.6413 20.0498 16.6797L21.1494 17.1074L20.457 15.8564L21.3486 14.7568C20.8828 14.8568 20.416 14.9522 19.9482 15.043C19.7548 14.7463 19.3829 14.1432 19.1768 13.8916ZM47.6973 8.78711C48.1785 10.0624 48.2444 11.2784 47.9463 12.6074C48.517 12.8377 49.1878 12.9702 49.792 13.2266C50.7417 13.6293 51.6858 14.1412 52.6611 14.4639C54.3262 15.0147 56.0507 15.3243 57.7754 15.5977C57.8946 14.5115 57.8406 12.6814 57.8213 11.5684C55.966 11.3644 53.1817 10.8869 51.4277 10.209C49.9856 9.65137 49.2874 9.2333 47.6973 8.78711ZM44.1143 6.64941C43.2335 6.32803 42.7585 6.07555 41.917 6.82031C41.4415 7.47003 41.1665 8.17181 40.873 8.91992L40.7422 8.20312C39.3382 8.48215 39.9533 8.79007 38.9316 9.49023L38.9053 9.56836C39.0227 9.68503 39.1158 9.70423 39.2744 9.76562L39.2891 9.83008C39.0563 9.95281 38.6106 10.0445 38.3408 10.1055C37.7655 10.2356 36.3417 10.6622 35.9443 11.0586L35.9688 11.1074C36.6953 11.2029 37.4563 10.9099 38.1855 10.875C40.0284 10.7867 43.8272 11.1829 45.0254 12.7412C45.6766 13.5883 45.7229 14.4268 45.6016 15.4268C46.1131 14.828 46.813 13.8257 46.9229 13.0303C47.0766 12.601 47.1464 12.1847 47.1924 11.7559C47.2771 10.9304 47.2109 10.1682 46.9951 9.48926C46.9558 9.36569 46.9115 9.24489 46.8623 9.12695C46.395 8.0078 45.4792 7.14771 44.1143 6.64941ZM16.2139 11.3848C15.764 11.396 15.2869 11.4003 14.8398 11.4248L15.9521 12.2988L15.5586 13.6719C15.7071 13.5698 16.6719 12.8779 16.7891 12.8848C17.1602 13.1316 17.549 13.3992 17.9229 13.6377L17.5205 12.2686L18.6357 11.3965C18.1662 11.3877 17.6809 11.3848 17.2129 11.3682C17.1245 11.1201 16.8184 10.2093 16.6885 10.0752L16.2139 11.3848ZM44.4521 12.9766C42.9284 11.9129 40.2861 11.1638 38.458 11.376C37.8967 11.4399 37.34 11.546 36.7949 11.6943C38.9287 11.7668 41.0171 11.7693 43.0859 12.5059C43.5544 12.6584 43.9905 12.8019 44.4521 12.9766ZM21.4082 10.1885L19.9893 10.2207L21.0996 11.085L20.791 12.1533L20.7559 12.3467L20.8193 12.373C21.0858 12.2151 21.7068 11.754 21.8867 11.6943L22.1152 11.8037C22.1222 11.6095 22.0474 11.4151 22.0391 11.2324C22.023 10.8769 22.2182 10.3953 22.3467 10.0693C22.2463 9.79068 22.0176 9.10145 21.8975 8.86621L21.4082 10.1885ZM43.9834 7.35254C43.4718 8.34751 42.7153 8.83789 41.6807 9.15039C41.9574 8.54758 42.2712 7.59548 43.0625 7.69727C43.4102 7.74197 43.5327 7.59504 43.7041 7.31445L43.9629 7.28906L43.9834 7.35254ZM35.8359 6.49805C35.599 6.91119 35.4586 7.2698 35.5967 7.76465C35.6966 8.11448 35.9365 8.40802 36.2598 8.5752C36.5689 8.73701 36.9301 8.76755 37.2627 8.66113C37.6302 8.54324 37.8541 8.31986 38.0742 8.01953C37.9869 7.89456 37.811 7.61064 37.6943 7.54395C37.3214 8.01899 36.9476 8.43358 36.375 7.9043C36.2421 7.78168 36.1774 7.71512 36.1602 7.52832C36.2392 7.17934 36.4863 7.169 36.4863 6.87695C36.3346 6.64387 36.1094 6.60266 35.8359 6.49805Z" fill="#547255"/>
</svg>
